<svg xmlns="http://www.w3.org/2000/svg" width="105" height="66" viewBox="0 0 105 66" fill="none"><rect x="15" y="10.1553" width="51" height="46" fill="white"></rect><path d="M101.925 0H88.8392C87.0379 0 85.6201 1.46426 85.6898 3.26553L87.2122 45.7987H97.0204L104.621 3.21904C104.934 1.45264 103.714 0 101.925 0ZM92.9298 52.3414H91.2912C88.1419 52.3414 85.5736 54.9213 85.5736 58.0706V59.7092C85.5736 62.8585 88.1535 65.4384 91.2912 65.4384H92.9298C96.0791 65.4384 98.6474 62.8585 98.6474 59.7092V58.0706C98.6474 54.9213 96.0675 52.3414 92.9298 52.3414ZM39.7865 0C18.1248 0 0.553711 14.6426 0.553711 32.7134C0.553711 50.7842 18.1248 65.4268 39.7865 65.4268C61.4482 65.4268 79.0193 50.7842 79.0193 32.7134C79.0193 14.6426 61.4599 0 39.7865 0ZM65.9572 26.1707H58.3687L46.3292 38.2102V45.7987H56.1374V52.3414H29.9783V45.7987H39.7865V38.2102L21.2276 19.628H16.9278V13.0854H36.5094V19.628H32.2096L43.0637 30.4937L46.3292 27.2282V19.6396H65.9456V26.1707H65.9572Z" fill="#5F0081"></path></svg>