<svg xmlns="http://www.w3.org/2000/svg" width="64" height="64" viewBox="0 0 64 64" fill="none"><g clip-path="url(#clip0_69_360)"><path d="M39.6138 13.5691V26.0879L43.9886 28.8426C44.104 28.8762 44.354 28.8786 44.4694 28.8426L63.298 16.1483C63.298 14.646 61.8966 13.5691 61.1058 13.5691H39.6138Z" fill="#0072C6"></path><path d="M39.6137 30.7584L43.6064 33.5011C44.1689 33.9145 44.8467 33.5011 44.8467 33.5011C44.1713 33.9145 63.3003 21.2083 63.3003 21.2083V44.217C63.3003 46.7217 61.697 47.7722 59.8942 47.7722H39.6113V30.7584H39.6137Z" fill="#0072C6"></path><path d="M18.9416 24.9871C17.5811 24.9871 16.497 25.6265 15.6965 26.9029C14.8961 28.1792 14.4946 29.8691 14.4946 31.9724C14.4946 34.1069 14.8961 35.7943 15.6965 37.0347C16.497 38.2774 17.5474 38.8952 18.8454 38.8952C20.1843 38.8952 21.2468 38.2918 22.0304 37.0852C22.814 35.8785 23.2082 34.2031 23.2082 32.0613C23.2082 29.8282 22.8285 28.0903 22.0665 26.8476C21.3045 25.6072 20.2636 24.9871 18.9416 24.9871Z" fill="#0072C6"></path><path d="M0 7.21127V56.1878L37.2582 64V0L0 7.21127V7.21127ZM24.9318 39.9793C23.3573 42.0513 21.3045 43.0897 18.7709 43.0897C16.3023 43.0897 14.2927 42.085 12.7375 40.0778C11.1847 38.0683 10.4059 35.453 10.4059 32.2272C10.4059 28.821 11.1943 26.0663 12.7736 23.963C14.3528 21.8598 16.4441 20.8069 19.0474 20.8069C21.5064 20.8069 23.4967 21.8117 25.0135 23.826C26.5327 25.8404 27.2922 28.4941 27.2922 31.7897C27.2946 35.1766 26.5062 37.9072 24.9318 39.9793Z" fill="#0072C6"></path></g><defs><clipPath id="clip0_69_360"><rect width="63.3005" height="64" fill="white"></rect></clipPath></defs></svg>